HIERARCHY
ROOT ui
{
	 OFFSET 0 0 0
	 CHANNELS 3 XPosition YPosition Z Position
	 EndSite
	 {
	 OFFSET 0 -1 0
	 }
}
ROOT li
{
	 OFFSET 0 0 0
	 CHANNELS 3 XPosition YPosition Z Position
	 EndSite
	 {
	 OFFSET 0 -1 0
	 }
}
ROOT ul
{
	 OFFSET 0 0 0
	 CHANNELS 3 XPosition YPosition Z Position
	 EndSite
	 {
	 OFFSET 0 -1 0
	 }
}
ROOT ll
{
	 OFFSET 0 0 0
	 CHANNELS 3 XPosition YPosition Z Position
	 EndSite
	 {
	 OFFSET 0 -1 0
	 }
}
ROOT tt
{
	 OFFSET 0 0 0
	 CHANNELS 3 XPosition YPosition Z Position
	 EndSite
	 {
	 OFFSET 0 -1 0
	 }
}
ROOT tb
{
	 OFFSET 0 0 0
	 CHANNELS 3 XPosition YPosition Z Position
	 EndSite
	 {
	 OFFSET 0 -1 0
	 }
}
ROOT td
{
	 OFFSET 0 0 0
	 CHANNELS 3 XPosition YPosition Z Position
	 EndSite
	 {
	 OFFSET 0 -1 0
	 }
}
ROOT v
{
	 OFFSET 0 0 0
	 CHANNELS 3 XPosition YPosition Z Position
	 EndSite
	 {
	 OFFSET 0 -1 0
	 }
}
ROOT bn
{
	 OFFSET 0 0 0
	 CHANNELS 3 XPosition YPosition Z Position
	 EndSite
	 {
	 OFFSET 0 -1 0
	 }
}
MOTION
Frames: 16
Frame Time: 0.002
-0.0016339789628982543	-5.519480109214783E-4	0		0.42927911376953126	-2.26709326171875	0		-1.1327908935546875	-0.0030166358947753906	0		-0.7418764038085938	-2.40598779296875	0		1.6928048095703125	-0.39336370849609376	0		3.264306396484375	0.17672454833984375	0		4.56895654296875	0.21165652465820312	0		5.5888671875	0.12539730072021485	0		-0.30395858764648437	5.862494140625	0		
0.017977668762207032	0.003040994882583618	0		0.43103936767578127	-2.264207763671875	0		-1.192316162109375	-0.008353878021240234	0		-0.755308349609375	-2.416966064453125	0		1.7025618896484376	-0.381505615234375	0		3.274775634765625	0.17168170166015626	0		4.57239453125	0.20480853271484376	0		5.592734375	0.10842244720458985	0		-0.2906615600585937	5.87315185546875	0		
4.988540112972259E-4	0.0021730749607086182	0		0.4156903076171875	-2.26807275390625	0		-1.19160791015625	0.0034238090515136717	0		-0.751531982421875	-2.413197509765625	0		1.7021251220703124	-0.38149078369140627	0		3.252747314453125	0.20313185119628907	0		4.5800859375	0.21692579650878907	0		5.59114013671875	0.13494569396972655	0		-0.2774333801269531	5.882810546875	0		
0.021087688446044923	0.006758279800415039	0		0.43247711181640625	-2.262396484375	0		-1.1142264404296875	-0.006905948162078858	0		-0.7647303466796875	-2.407183837890625	0		1.7016751708984375	-0.3814656066894531	0		3.2669609375	0.18306837463378905	0		4.575501953125	0.2112413787841797	0		5.5950029296875	0.1215289306640625	0		-0.41167718505859374	5.86359228515625	0		
-4.738039970397949E-4	0.0019543960094451905	0		0.4301464538574219	-2.264438232421875	0		-1.1306300048828124	-8.774759769439697E-4	0		-0.7310955200195313	-2.412840087890625	0		1.69715869140625	-0.3853721923828125	0		3.28463818359375	0.19597627258300782	0		4.57009326171875	0.21858840942382812	0		5.59048486328125	0.13958546447753906	0		-0.2925428466796875	5.8707333984375	0		
-0.0040167679786682125	-0.0011024010181427003	0		0.42779714965820315	-2.267472412109375	0		-1.211150634765625	-0.0019359910488128663	0		-0.76937158203125	-2.411462158203125	0		1.6936346435546874	-0.38928372192382815	0		3.256953125	0.18454254150390625	0		4.57038916015625	0.20586650085449218	0		5.5901376953125	0.14022360229492187	0		-0.29550234985351564	5.87363671875	0		
-0.004525076866149902	-0.0011948130130767821	0		0.43839801025390623	-2.273682373046875	0		-1.11572509765625	-0.007488854885101318	0		-0.7208045043945313	-2.42131201171875	0		1.7002720947265626	-0.38132974243164064	0		3.255598388671875	0.1967437744140625	0		4.573947265625	0.2121107177734375	0		5.5981416015625	0.105990478515625	0		-0.2945589599609375	5.8704912109375	0		
-0.001998175024986267	0.001678655982017517	0		0.4270916748046875	-2.272574462890625	0		-1.18717626953125	-0.002670422077178955	0		-0.7509840087890625	-2.41203662109375	0		1.702845458984375	-0.37731121826171876	0		3.2697841796875	0.17672850036621093	0		4.57138623046875	0.2104447479248047	0		5.58716650390625	0.12085779571533203	0		-0.4127449340820312	5.85902783203125	0		
-0.002517848014831543	0.0016038860082626342	0		0.45686874389648435	-2.265033447265625	0		-1.1286175537109375	0.002332240104675293	0		-0.6943377075195313	-2.41496923828125	0		1.699301513671875	-0.38120285034179685	0		3.263627685546875	0.20400523376464844	0		4.572876953125	0.21271974182128905	0		5.5919873046875	0.15420918273925782	0		-0.4157064819335938	5.86194677734375	0		
-0.0030390839576721193	0.001538720965385437	0		0.4285292053222656	-2.264673583984375	0		-1.1991876220703126	-8.492969870567322E-4	0		-0.7784933471679687	-2.401923583984375	0		1.6947552490234374	-0.38507766723632814	0		3.259729736328125	0.17824215698242188	0		4.57233935546875	0.213015869140625	0		5.5864638671875	0.12560684967041016	0		-0.4459793395996094	5.84125341796875	0		
-0.006599405765533447	-0.001474874973297119	0		0.46198309326171877	-2.279164794921875	0		-1.13775390625	-0.004850320816040039	0		-0.7350162963867187	-2.415643310546875	0		1.6942650146484375	-0.385005859375	0		3.25429443359375	0.18549955749511718	0		4.57381787109375	0.21427543640136718	0		5.5854189453125	0.13143418884277344	0		-0.2985216979980469	5.87011767578125	0		
-0.0071116647720336915	-0.0015204869508743286	0		0.41962246704101563	-2.279599853515625	0		-1.1932882080078124	-0.006220073223114014	0		-0.7583965454101562	-2.41842431640625	0		1.693780029296875	-0.3849309387207031	0		3.258672119140625	0.17861695861816407	0		4.57127685546875	0.2135819854736328	0		5.58574462890625	0.12681385803222656	0		-0.2994500427246094	5.87005126953125	0		
0.01649559211730957	0.0061149787902832035	0		0.455476806640625	-2.2651005859375	0		-1.11880859375	-0.008360614776611328	0		-0.7655698852539062	-2.40641552734375	0		1.697360107421875	-0.3809077453613281	0		3.272432373046875	0.19860667419433595	0		4.57076220703125	0.2138529052734375	0		5.5959970703125	0.10973382568359374	0		-0.43361773681640625	5.85081689453125	0		
-0.0050527071952819825	0.0013771929740905762	0		0.4291673583984375	-2.262743408203125	0		-1.12522119140625	-0.0033750441074371336	0		-0.7699541625976563	-2.41043408203125	0		1.69284814453125	-0.3847711181640625	0		3.26174853515625	0.18492512512207032	0		4.57026708984375	0.21411573791503907	0		5.5943994140625	0.13974295043945312	0		-0.28704620361328126	5.8807607421875	0		
0.016432289123535157	-0.002936706066131592	0		0.4527721862792969	-2.26805859375	0		-1.1356651611328126	-0.0023217649459838867	0		-0.772297607421875	-2.412468017578125	0		1.6893582763671875	-0.38864602661132813	0		3.279453369140625	0.19785658264160155	0		4.56571484375	0.20842428588867187	0		5.58697607421875	0.145699462890625	0		-0.30199957275390626	5.86991845703125	0		
-0.013915760040283203	0.0034612228870391846	0		0.42446661376953126	-2.267663330078125	0		-1.1301650390625	-0.007471699237823487	0		-0.7465326538085938	-2.407868896484375	0		1.685893798828125	-0.39252032470703124	0		3.25185107421875	0.18639381408691405	0		4.565271484375	0.2086661834716797	0		5.5908564453125	0.12876541137695313	0		-0.31688571166992185	5.86008447265625	0		
